<svg version="1.2" xmlns="http://www.w3.org/2000/svg" viewBox="0 0 629 445" width="629" height="445">
	<title>logo</title>
	<style>
		.s0 { fill: #05d8c8 } 
	</style>
	<path class="s0" d="m41.5 327.7h-25.3v-12h64.7v12h-25.3v64.2h-14.1z"/>
	<path class="s0" d="m163.6 315.7v76.2h-14.1v-32.7h-39.4v32.7h-14.2v-76.2h14.2v31.5h39.4v-31.5z"/>
	<path class="s0" d="m245.6 380v11.9h-57.1v-76.2h55.6v11.9h-41.5v19.8h36.8v11.6h-36.8v21c0 0 43 0 43 0z"/>
	<path class="s0" d="m363.9 342.8c0 16.8-12.4 27.1-32.4 27.1h-17.2v22h-14.2v-76.2h31.4c20 0 32.4 10.2 32.4 27.1zm-14.2 0c0-9.6-6.4-15.1-18.9-15.1h-16.5v30.2h16.5c12.4 0 18.9-5.5 18.9-15.1z"/>
	<path class="s0" d="m428 374.3h-38.1l-7.5 17.6h-14.6l34.3-76.2h14l34.4 76.2h-14.8zm-4.7-11.1l-14.4-33.3-14.2 33.3z"/>
	<path class="s0" d="m514.4 391.9l-15.6-22.3c-1 0.1-2 0.1-2.9 0.1h-17.2v22.2h-14.2v-76.2h31.4c20 0 32.4 10.2 32.4 27.1 0 11.5-5.9 20-16.2 24.1l17.5 25c0 0-15.2 0-15.2 0zm-19.2-64.2h-16.5v30.3h16.5c12.4 0 18.9-5.6 18.9-15.2 0-9.6-6.5-15.1-18.9-15.1z"/>
	<path class="s0" d="m574.7 360l-12.1 12.4v19.5h-14.1v-76.2h14.1v39.1l37.7-39.1h15.9l-32 34.1 33.9 42.1h-16.5c0 0-26.9-31.9-26.9-31.9z"/>
	<path class="s0" d="m245.2 157.5l-42.7-42.6c-10.1-10.1-10.1-26.5 0-36.7l28.7-28.7c10.1-10.2 26.6-10.2 36.7-0.1l42.7 42.6v65.4z"/>
	<path class="s0" d="m397.5 277.8c-8.7 8.8-23 8.8-31.7 0.1l-45.2-45.1v-65.5h65.4l45.2 45.1c8.7 8.7 8.7 22.9 0 31.6l-33.7 33.8z"/>
	<path class="s0" d="m268.1 275.5c-10.1 10.1-26.5 10.1-36.7 0l-28.7-28.7c-10.2-10.1-10.2-26.6-0.1-36.7l42.6-42.7h65.4l0.1 65.4z"/>
	<path class="s0" d="m386 157.4h-65.5v-65.4l45.5-45.6c8.5-8.5 22.3-8.5 30.8-0.1l34.7 34.6c8.5 8.5 8.5 22.4 0 30.9z"/>
</svg>